solid OpenSCAD_Model
  facet normal -1 0 0
    outer loop
      vertex 0 32 0
      vertex 0 1.5 1.5
      vertex 0 32 1.5
    endloop
  endfacet
  facet normal -1 0 0
    outer loop
      vertex 0 0 0
      vertex 0 1.5 1.5
      vertex 0 32 0
    endloop
  endfacet
  facet normal -1 0 0
    outer loop
      vertex 0 0 5
      vertex 0 1.5 1.5
      vertex 0 0 0
    endloop
  endfacet
  facet normal -1 0 0
    outer loop
      vertex 0 1.5 1.5
      vertex 0 0 5
      vertex 0 1.5 5
    endloop
  endfacet
  facet normal 0 0 1
    outer loop
      vertex 245 32 1.5
      vertex 240 28.1 1.5
      vertex 245 1.5 1.5
    endloop
  endfacet
  facet normal 0 0 1
    outer loop
      vertex 245 32 1.5
      vertex 210 28.1 1.5
      vertex 240 28.1 1.5
    endloop
  endfacet
  facet normal 0 0 1
    outer loop
      vertex 210 28.1 1.5
      vertex 205 25.1 1.5
      vertex 210 1.5 1.5
    endloop
  endfacet
  facet normal 0 0 1
    outer loop
      vertex 210 28.1 1.5
      vertex 175 25.1 1.5
      vertex 205 25.1 1.5
    endloop
  endfacet
  facet normal 0 0 1
    outer loop
      vertex 140 24.2 1.5
      vertex 210 28.1 1.5
      vertex 245 32 1.5
    endloop
  endfacet
  facet normal 0 0 1
    outer loop
      vertex 175 25.1 1.5
      vertex 170 24.2 1.5
      vertex 175 1.5 1.5
    endloop
  endfacet
  facet normal 0 0 1
    outer loop
      vertex 175 25.1 1.5
      vertex 140 24.2 1.5
      vertex 170 24.2 1.5
    endloop
  endfacet
  facet normal 0 0 1
    outer loop
      vertex 210 28.1 1.5
      vertex 140 24.2 1.5
      vertex 175 25.1 1.5
    endloop
  endfacet
  facet normal 0 0 1
    outer loop
      vertex 140 24.2 1.5
      vertex 135 23.6 1.5
      vertex 140 1.5 1.5
    endloop
  endfacet
  facet normal 0 0 1
    outer loop
      vertex 140 24.2 1.5
      vertex 105 23.6 1.5
      vertex 135 23.6 1.5
    endloop
  endfacet
  facet normal -0 0 1
    outer loop
      vertex 0 32 1.5
      vertex 140 24.2 1.5
      vertex 245 32 1.5
    endloop
  endfacet
  facet normal 0 0 1
    outer loop
      vertex 105 23.6 1.5
      vertex 100 22.6 1.5
      vertex 105 1.5 1.5
    endloop
  endfacet
  facet normal 0 0 1
    outer loop
      vertex 105 23.6 1.5
      vertex 70 22.6 1.5
      vertex 100 22.6 1.5
    endloop
  endfacet
  facet normal 0 0 1
    outer loop
      vertex 140 24.2 1.5
      vertex 0 32 1.5
      vertex 105 23.6 1.5
    endloop
  endfacet
  facet normal 0 0 1
    outer loop
      vertex 70 22.6 1.5
      vertex 65 21.6 1.5
      vertex 70 1.5 1.5
    endloop
  endfacet
  facet normal 0 0 1
    outer loop
      vertex 70 22.6 1.5
      vertex 35 21.6 1.5
      vertex 65 21.6 1.5
    endloop
  endfacet
  facet normal 0 0 1
    outer loop
      vertex 105 23.6 1.5
      vertex 0 32 1.5
      vertex 70 22.6 1.5
    endloop
  endfacet
  facet normal 0 0 1
    outer loop
      vertex 70 22.6 1.5
      vertex 0 32 1.5
      vertex 35 21.6 1.5
    endloop
  endfacet
  facet normal 0 0 1
    outer loop
      vertex 0 1.5 1.5
      vertex 35 21.6 1.5
      vertex 0 32 1.5
    endloop
  endfacet
  facet normal 0 0 1
    outer loop
      vertex 35 21.6 1.5
      vertex 0 1.5 1.5
      vertex 35 1.5 1.5
    endloop
  endfacet
  facet normal 0 0 1
    outer loop
      vertex 245 1.5 1.5
      vertex 240 28.1 1.5
      vertex 240 1.5 1.5
    endloop
  endfacet
  facet normal 0 0 1
    outer loop
      vertex 210 1.5 1.5
      vertex 205 25.1 1.5
      vertex 205 1.5 1.5
    endloop
  endfacet
  facet normal 0 0 1
    outer loop
      vertex 175 1.5 1.5
      vertex 170 24.2 1.5
      vertex 170 1.5 1.5
    endloop
  endfacet
  facet normal 0 0 1
    outer loop
      vertex 140 1.5 1.5
      vertex 135 23.6 1.5
      vertex 135 1.5 1.5
    endloop
  endfacet
  facet normal 0 0 1
    outer loop
      vertex 105 1.5 1.5
      vertex 100 22.6 1.5
      vertex 100 1.5 1.5
    endloop
  endfacet
  facet normal 0 0 1
    outer loop
      vertex 70 1.5 1.5
      vertex 65 21.6 1.5
      vertex 65 1.5 1.5
    endloop
  endfacet
  facet normal 1 0 0
    outer loop
      vertex 245 1.5 5
      vertex 245 0 5
      vertex 245 1.5 1.5
    endloop
  endfacet
  facet normal 1 -0 0
    outer loop
      vertex 245 1.5 1.5
      vertex 245 32 0
      vertex 245 32 1.5
    endloop
  endfacet
  facet normal 1 0 0
    outer loop
      vertex 245 1.5 1.5
      vertex 245 0 0
      vertex 245 32 0
    endloop
  endfacet
  facet normal 1 0 0
    outer loop
      vertex 245 0 0
      vertex 245 1.5 1.5
      vertex 245 0 5
    endloop
  endfacet
  facet normal 0 0 -1
    outer loop
      vertex 240 28.1 0
      vertex 245 0 0
      vertex 240 1.5 0
    endloop
  endfacet
  facet normal 0 0 -1
    outer loop
      vertex 245 0 0
      vertex 210 1.5 0
      vertex 240 1.5 0
    endloop
  endfacet
  facet normal 0 0 -1
    outer loop
      vertex 205 25.1 0
      vertex 210 1.5 0
      vertex 205 1.5 0
    endloop
  endfacet
  facet normal 0 0 -1
    outer loop
      vertex 245 0 0
      vertex 205 1.5 0
      vertex 210 1.5 0
    endloop
  endfacet
  facet normal 0 0 -1
    outer loop
      vertex 245 0 0
      vertex 175 1.5 0
      vertex 205 1.5 0
    endloop
  endfacet
  facet normal 0 0 -1
    outer loop
      vertex 170 24.2 0
      vertex 175 1.5 0
      vertex 170 1.5 0
    endloop
  endfacet
  facet normal 0 0 -1
    outer loop
      vertex 245 0 0
      vertex 170 1.5 0
      vertex 175 1.5 0
    endloop
  endfacet
  facet normal 0 0 -1
    outer loop
      vertex 245 0 0
      vertex 140 1.5 0
      vertex 170 1.5 0
    endloop
  endfacet
  facet normal 0 0 -1
    outer loop
      vertex 135 23.6 0
      vertex 140 1.5 0
      vertex 135 1.5 0
    endloop
  endfacet
  facet normal 0 0 -1
    outer loop
      vertex 245 0 0
      vertex 135 1.5 0
      vertex 140 1.5 0
    endloop
  endfacet
  facet normal 0 0 -1
    outer loop
      vertex 245 0 0
      vertex 105 1.5 0
      vertex 135 1.5 0
    endloop
  endfacet
  facet normal 0 0 -1
    outer loop
      vertex 100 22.6 0
      vertex 105 1.5 0
      vertex 100 1.5 0
    endloop
  endfacet
  facet normal 0 0 -1
    outer loop
      vertex 245 0 0
      vertex 100 1.5 0
      vertex 105 1.5 0
    endloop
  endfacet
  facet normal 0 0 -1
    outer loop
      vertex 0 0 0
      vertex 100 1.5 0
      vertex 245 0 0
    endloop
  endfacet
  facet normal 0 0 -1
    outer loop
      vertex 65 21.6 0
      vertex 70 1.5 0
      vertex 65 1.5 0
    endloop
  endfacet
  facet normal -0 0 -1
    outer loop
      vertex 100 1.5 0
      vertex 0 0 0
      vertex 70 1.5 0
    endloop
  endfacet
  facet normal -0 0 -1
    outer loop
      vertex 70 1.5 0
      vertex 0 0 0
      vertex 65 1.5 0
    endloop
  endfacet
  facet normal -0 0 -1
    outer loop
      vertex 35 1.5 0
      vertex 0 0 0
      vertex 35 21.6 0
    endloop
  endfacet
  facet normal -0 0 -1
    outer loop
      vertex 65 1.5 0
      vertex 0 0 0
      vertex 35 1.5 0
    endloop
  endfacet
  facet normal 0 0 -1
    outer loop
      vertex 245 0 0
      vertex 240 28.1 0
      vertex 245 32 0
    endloop
  endfacet
  facet normal 0 0 -1
    outer loop
      vertex 210 28.1 0
      vertex 245 32 0
      vertex 240 28.1 0
    endloop
  endfacet
  facet normal 0 0 -1
    outer loop
      vertex 210 1.5 0
      vertex 205 25.1 0
      vertex 210 28.1 0
    endloop
  endfacet
  facet normal 0 0 -1
    outer loop
      vertex 175 25.1 0
      vertex 210 28.1 0
      vertex 205 25.1 0
    endloop
  endfacet
  facet normal 0 0 -1
    outer loop
      vertex 140 24.2 0
      vertex 210 28.1 0
      vertex 175 25.1 0
    endloop
  endfacet
  facet normal 0 0 -1
    outer loop
      vertex 175 1.5 0
      vertex 170 24.2 0
      vertex 175 25.1 0
    endloop
  endfacet
  facet normal 0 0 -1
    outer loop
      vertex 140 24.2 0
      vertex 175 25.1 0
      vertex 170 24.2 0
    endloop
  endfacet
  facet normal -0 0 -1
    outer loop
      vertex 210 28.1 0
      vertex 140 24.2 0
      vertex 245 32 0
    endloop
  endfacet
  facet normal 0 0 -1
    outer loop
      vertex 140 1.5 0
      vertex 135 23.6 0
      vertex 140 24.2 0
    endloop
  endfacet
  facet normal 0 0 -1
    outer loop
      vertex 105 23.6 0
      vertex 140 24.2 0
      vertex 135 23.6 0
    endloop
  endfacet
  facet normal 0 0 -1
    outer loop
      vertex 0 32 0
      vertex 140 24.2 0
      vertex 105 23.6 0
    endloop
  endfacet
  facet normal 0 0 -1
    outer loop
      vertex 105 1.5 0
      vertex 100 22.6 0
      vertex 105 23.6 0
    endloop
  endfacet
  facet normal 0 0 -1
    outer loop
      vertex 70 22.6 0
      vertex 105 23.6 0
      vertex 100 22.6 0
    endloop
  endfacet
  facet normal 0 0 -1
    outer loop
      vertex 0 32 0
      vertex 105 23.6 0
      vertex 70 22.6 0
    endloop
  endfacet
  facet normal 0 0 -1
    outer loop
      vertex 70 1.5 0
      vertex 65 21.6 0
      vertex 70 22.6 0
    endloop
  endfacet
  facet normal 0 0 -1
    outer loop
      vertex 35 21.6 0
      vertex 70 22.6 0
      vertex 65 21.6 0
    endloop
  endfacet
  facet normal 0 0 -1
    outer loop
      vertex 0 32 0
      vertex 70 22.6 0
      vertex 35 21.6 0
    endloop
  endfacet
  facet normal 0 0 -1
    outer loop
      vertex 140 24.2 0
      vertex 0 32 0
      vertex 245 32 0
    endloop
  endfacet
  facet normal 0 0 -1
    outer loop
      vertex 0 32 0
      vertex 35 21.6 0
      vertex 0 0 0
    endloop
  endfacet
  facet normal 0 -1 0
    outer loop
      vertex 0 0 0
      vertex 245 0 5
      vertex 0 0 5
    endloop
  endfacet
  facet normal 0 -1 -0
    outer loop
      vertex 245 0 5
      vertex 0 0 0
      vertex 245 0 0
    endloop
  endfacet
  facet normal 0 1 -0
    outer loop
      vertex 245 32 0
      vertex 0 32 1.5
      vertex 245 32 1.5
    endloop
  endfacet
  facet normal 0 1 0
    outer loop
      vertex 0 32 1.5
      vertex 245 32 0
      vertex 0 32 0
    endloop
  endfacet
  facet normal -0 0 1
    outer loop
      vertex 240 1.5 5
      vertex 245 0 5
      vertex 245 1.5 5
    endloop
  endfacet
  facet normal -0 0 1
    outer loop
      vertex 210 1.5 5
      vertex 245 0 5
      vertex 240 1.5 5
    endloop
  endfacet
  facet normal -0 0 1
    outer loop
      vertex 205 1.5 5
      vertex 245 0 5
      vertex 210 1.5 5
    endloop
  endfacet
  facet normal -0 0 1
    outer loop
      vertex 175 1.5 5
      vertex 245 0 5
      vertex 205 1.5 5
    endloop
  endfacet
  facet normal -0 0 1
    outer loop
      vertex 170 1.5 5
      vertex 245 0 5
      vertex 175 1.5 5
    endloop
  endfacet
  facet normal -0 0 1
    outer loop
      vertex 140 1.5 5
      vertex 245 0 5
      vertex 170 1.5 5
    endloop
  endfacet
  facet normal -0 0 1
    outer loop
      vertex 135 1.5 5
      vertex 245 0 5
      vertex 140 1.5 5
    endloop
  endfacet
  facet normal -0 0 1
    outer loop
      vertex 105 1.5 5
      vertex 245 0 5
      vertex 135 1.5 5
    endloop
  endfacet
  facet normal -0 0 1
    outer loop
      vertex 100 1.5 5
      vertex 245 0 5
      vertex 105 1.5 5
    endloop
  endfacet
  facet normal 0 0 1
    outer loop
      vertex 0 0 5
      vertex 100 1.5 5
      vertex 70 1.5 5
    endloop
  endfacet
  facet normal 0 0 1
    outer loop
      vertex 0 0 5
      vertex 70 1.5 5
      vertex 65 1.5 5
    endloop
  endfacet
  facet normal 0 0 1
    outer loop
      vertex 0 0 5
      vertex 65 1.5 5
      vertex 35 1.5 5
    endloop
  endfacet
  facet normal 0 0 1
    outer loop
      vertex 0 0 5
      vertex 35 1.5 5
      vertex 0 1.5 5
    endloop
  endfacet
  facet normal 0 0 1
    outer loop
      vertex 100 1.5 5
      vertex 0 0 5
      vertex 245 0 5
    endloop
  endfacet
  facet normal 0 1 -0
    outer loop
      vertex 245 1.5 1.5
      vertex 240 1.5 5
      vertex 245 1.5 5
    endloop
  endfacet
  facet normal 0 1 0
    outer loop
      vertex 240 1.5 5
      vertex 245 1.5 1.5
      vertex 240 1.5 1.5
    endloop
  endfacet
  facet normal 0 1 -0
    outer loop
      vertex 35 1.5 1.5
      vertex 0 1.5 5
      vertex 35 1.5 5
    endloop
  endfacet
  facet normal 0 1 0
    outer loop
      vertex 0 1.5 5
      vertex 35 1.5 1.5
      vertex 0 1.5 1.5
    endloop
  endfacet
  facet normal 0 1 -0
    outer loop
      vertex 65 1.5 1.5
      vertex 35 1.5 5
      vertex 65 1.5 5
    endloop
  endfacet
  facet normal 0 1 0
    outer loop
      vertex 65 1.5 1.5
      vertex 35 1.5 1.5
      vertex 35 1.5 5
    endloop
  endfacet
  facet normal 0 1 -0
    outer loop
      vertex 65 1.5 0
      vertex 35 1.5 1.5
      vertex 65 1.5 1.5
    endloop
  endfacet
  facet normal 0 1 0
    outer loop
      vertex 35 1.5 1.5
      vertex 65 1.5 0
      vertex 35 1.5 0
    endloop
  endfacet
  facet normal 0 1 -0
    outer loop
      vertex 70 1.5 1.5
      vertex 65 1.5 5
      vertex 70 1.5 5
    endloop
  endfacet
  facet normal 0 1 0
    outer loop
      vertex 65 1.5 5
      vertex 70 1.5 1.5
      vertex 65 1.5 1.5
    endloop
  endfacet
  facet normal 0 1 -0
    outer loop
      vertex 100 1.5 1.5
      vertex 70 1.5 5
      vertex 100 1.5 5
    endloop
  endfacet
  facet normal 0 1 0
    outer loop
      vertex 100 1.5 1.5
      vertex 70 1.5 1.5
      vertex 70 1.5 5
    endloop
  endfacet
  facet normal 0 1 -0
    outer loop
      vertex 100 1.5 0
      vertex 70 1.5 1.5
      vertex 100 1.5 1.5
    endloop
  endfacet
  facet normal 0 1 0
    outer loop
      vertex 70 1.5 1.5
      vertex 100 1.5 0
      vertex 70 1.5 0
    endloop
  endfacet
  facet normal 0 1 -0
    outer loop
      vertex 105 1.5 1.5
      vertex 100 1.5 5
      vertex 105 1.5 5
    endloop
  endfacet
  facet normal 0 1 0
    outer loop
      vertex 100 1.5 5
      vertex 105 1.5 1.5
      vertex 100 1.5 1.5
    endloop
  endfacet
  facet normal 0 1 -0
    outer loop
      vertex 135 1.5 1.5
      vertex 105 1.5 5
      vertex 135 1.5 5
    endloop
  endfacet
  facet normal 0 1 0
    outer loop
      vertex 135 1.5 1.5
      vertex 105 1.5 1.5
      vertex 105 1.5 5
    endloop
  endfacet
  facet normal 0 1 -0
    outer loop
      vertex 135 1.5 0
      vertex 105 1.5 1.5
      vertex 135 1.5 1.5
    endloop
  endfacet
  facet normal 0 1 0
    outer loop
      vertex 105 1.5 1.5
      vertex 135 1.5 0
      vertex 105 1.5 0
    endloop
  endfacet
  facet normal 0 1 -0
    outer loop
      vertex 140 1.5 1.5
      vertex 135 1.5 5
      vertex 140 1.5 5
    endloop
  endfacet
  facet normal 0 1 0
    outer loop
      vertex 135 1.5 5
      vertex 140 1.5 1.5
      vertex 135 1.5 1.5
    endloop
  endfacet
  facet normal 0 1 -0
    outer loop
      vertex 170 1.5 1.5
      vertex 140 1.5 5
      vertex 170 1.5 5
    endloop
  endfacet
  facet normal 0 1 0
    outer loop
      vertex 170 1.5 1.5
      vertex 140 1.5 1.5
      vertex 140 1.5 5
    endloop
  endfacet
  facet normal 0 1 -0
    outer loop
      vertex 170 1.5 0
      vertex 140 1.5 1.5
      vertex 170 1.5 1.5
    endloop
  endfacet
  facet normal 0 1 0
    outer loop
      vertex 140 1.5 1.5
      vertex 170 1.5 0
      vertex 140 1.5 0
    endloop
  endfacet
  facet normal 0 1 -0
    outer loop
      vertex 175 1.5 1.5
      vertex 170 1.5 5
      vertex 175 1.5 5
    endloop
  endfacet
  facet normal 0 1 0
    outer loop
      vertex 170 1.5 5
      vertex 175 1.5 1.5
      vertex 170 1.5 1.5
    endloop
  endfacet
  facet normal 0 1 -0
    outer loop
      vertex 205 1.5 1.5
      vertex 175 1.5 5
      vertex 205 1.5 5
    endloop
  endfacet
  facet normal 0 1 0
    outer loop
      vertex 205 1.5 1.5
      vertex 175 1.5 1.5
      vertex 175 1.5 5
    endloop
  endfacet
  facet normal 0 1 -0
    outer loop
      vertex 205 1.5 0
      vertex 175 1.5 1.5
      vertex 205 1.5 1.5
    endloop
  endfacet
  facet normal 0 1 0
    outer loop
      vertex 175 1.5 1.5
      vertex 205 1.5 0
      vertex 175 1.5 0
    endloop
  endfacet
  facet normal 0 1 -0
    outer loop
      vertex 210 1.5 1.5
      vertex 205 1.5 5
      vertex 210 1.5 5
    endloop
  endfacet
  facet normal 0 1 0
    outer loop
      vertex 205 1.5 5
      vertex 210 1.5 1.5
      vertex 205 1.5 1.5
    endloop
  endfacet
  facet normal 0 1 -0
    outer loop
      vertex 240 1.5 1.5
      vertex 210 1.5 5
      vertex 240 1.5 5
    endloop
  endfacet
  facet normal 0 1 0
    outer loop
      vertex 240 1.5 1.5
      vertex 210 1.5 1.5
      vertex 210 1.5 5
    endloop
  endfacet
  facet normal 0 1 -0
    outer loop
      vertex 240 1.5 0
      vertex 210 1.5 1.5
      vertex 240 1.5 1.5
    endloop
  endfacet
  facet normal 0 1 0
    outer loop
      vertex 210 1.5 1.5
      vertex 240 1.5 0
      vertex 210 1.5 0
    endloop
  endfacet
  facet normal 1 -0 0
    outer loop
      vertex 35 1.5 1.5
      vertex 35 21.6 0
      vertex 35 21.6 1.5
    endloop
  endfacet
  facet normal 1 0 0
    outer loop
      vertex 35 21.6 0
      vertex 35 1.5 1.5
      vertex 35 1.5 0
    endloop
  endfacet
  facet normal -1 0 0
    outer loop
      vertex 65 1.5 0
      vertex 65 21.6 1.5
      vertex 65 21.6 0
    endloop
  endfacet
  facet normal -1 -0 0
    outer loop
      vertex 65 21.6 1.5
      vertex 65 1.5 0
      vertex 65 1.5 1.5
    endloop
  endfacet
  facet normal 0 -1 0
    outer loop
      vertex 35 21.6 0
      vertex 65 21.6 1.5
      vertex 35 21.6 1.5
    endloop
  endfacet
  facet normal 0 -1 -0
    outer loop
      vertex 65 21.6 1.5
      vertex 35 21.6 0
      vertex 65 21.6 0
    endloop
  endfacet
  facet normal 1 -0 0
    outer loop
      vertex 70 1.5 1.5
      vertex 70 22.6 0
      vertex 70 22.6 1.5
    endloop
  endfacet
  facet normal 1 0 0
    outer loop
      vertex 70 22.6 0
      vertex 70 1.5 1.5
      vertex 70 1.5 0
    endloop
  endfacet
  facet normal -1 0 0
    outer loop
      vertex 100 1.5 0
      vertex 100 22.6 1.5
      vertex 100 22.6 0
    endloop
  endfacet
  facet normal -1 -0 0
    outer loop
      vertex 100 22.6 1.5
      vertex 100 1.5 0
      vertex 100 1.5 1.5
    endloop
  endfacet
  facet normal 0 -1 0
    outer loop
      vertex 70 22.6 0
      vertex 100 22.6 1.5
      vertex 70 22.6 1.5
    endloop
  endfacet
  facet normal 0 -1 -0
    outer loop
      vertex 100 22.6 1.5
      vertex 70 22.6 0
      vertex 100 22.6 0
    endloop
  endfacet
  facet normal 1 -0 0
    outer loop
      vertex 105 1.5 1.5
      vertex 105 23.6 0
      vertex 105 23.6 1.5
    endloop
  endfacet
  facet normal 1 0 0
    outer loop
      vertex 105 23.6 0
      vertex 105 1.5 1.5
      vertex 105 1.5 0
    endloop
  endfacet
  facet normal -1 0 0
    outer loop
      vertex 135 1.5 0
      vertex 135 23.6 1.5
      vertex 135 23.6 0
    endloop
  endfacet
  facet normal -1 -0 0
    outer loop
      vertex 135 23.6 1.5
      vertex 135 1.5 0
      vertex 135 1.5 1.5
    endloop
  endfacet
  facet normal 0 -1 0
    outer loop
      vertex 105 23.6 0
      vertex 135 23.6 1.5
      vertex 105 23.6 1.5
    endloop
  endfacet
  facet normal 0 -1 -0
    outer loop
      vertex 135 23.6 1.5
      vertex 105 23.6 0
      vertex 135 23.6 0
    endloop
  endfacet
  facet normal 1 -0 0
    outer loop
      vertex 140 1.5 1.5
      vertex 140 24.2 0
      vertex 140 24.2 1.5
    endloop
  endfacet
  facet normal 1 0 0
    outer loop
      vertex 140 24.2 0
      vertex 140 1.5 1.5
      vertex 140 1.5 0
    endloop
  endfacet
  facet normal -1 0 0
    outer loop
      vertex 170 1.5 0
      vertex 170 24.2 1.5
      vertex 170 24.2 0
    endloop
  endfacet
  facet normal -1 -0 0
    outer loop
      vertex 170 24.2 1.5
      vertex 170 1.5 0
      vertex 170 1.5 1.5
    endloop
  endfacet
  facet normal 0 -1 0
    outer loop
      vertex 140 24.2 0
      vertex 170 24.2 1.5
      vertex 140 24.2 1.5
    endloop
  endfacet
  facet normal 0 -1 -0
    outer loop
      vertex 170 24.2 1.5
      vertex 140 24.2 0
      vertex 170 24.2 0
    endloop
  endfacet
  facet normal 1 -0 0
    outer loop
      vertex 175 1.5 1.5
      vertex 175 25.1 0
      vertex 175 25.1 1.5
    endloop
  endfacet
  facet normal 1 0 0
    outer loop
      vertex 175 25.1 0
      vertex 175 1.5 1.5
      vertex 175 1.5 0
    endloop
  endfacet
  facet normal -1 0 0
    outer loop
      vertex 205 1.5 0
      vertex 205 25.1 1.5
      vertex 205 25.1 0
    endloop
  endfacet
  facet normal -1 -0 0
    outer loop
      vertex 205 25.1 1.5
      vertex 205 1.5 0
      vertex 205 1.5 1.5
    endloop
  endfacet
  facet normal 0 -1 0
    outer loop
      vertex 175 25.1 0
      vertex 205 25.1 1.5
      vertex 175 25.1 1.5
    endloop
  endfacet
  facet normal 0 -1 -0
    outer loop
      vertex 205 25.1 1.5
      vertex 175 25.1 0
      vertex 205 25.1 0
    endloop
  endfacet
  facet normal 1 -0 0
    outer loop
      vertex 210 1.5 1.5
      vertex 210 28.1 0
      vertex 210 28.1 1.5
    endloop
  endfacet
  facet normal 1 0 0
    outer loop
      vertex 210 28.1 0
      vertex 210 1.5 1.5
      vertex 210 1.5 0
    endloop
  endfacet
  facet normal -1 0 0
    outer loop
      vertex 240 1.5 0
      vertex 240 28.1 1.5
      vertex 240 28.1 0
    endloop
  endfacet
  facet normal -1 -0 0
    outer loop
      vertex 240 28.1 1.5
      vertex 240 1.5 0
      vertex 240 1.5 1.5
    endloop
  endfacet
  facet normal 0 -1 0
    outer loop
      vertex 210 28.1 0
      vertex 240 28.1 1.5
      vertex 210 28.1 1.5
    endloop
  endfacet
  facet normal 0 -1 -0
    outer loop
      vertex 240 28.1 1.5
      vertex 210 28.1 0
      vertex 240 28.1 0
    endloop
  endfacet
endsolid OpenSCAD_Model
