solid OpenSCAD_Model
  facet normal -1 0 0
    outer loop
      vertex 0 31 0
      vertex 0 1.5 1.5
      vertex 0 31 1.5
    endloop
  endfacet
  facet normal -1 0 0
    outer loop
      vertex 0 0 0
      vertex 0 1.5 1.5
      vertex 0 31 0
    endloop
  endfacet
  facet normal -1 0 0
    outer loop
      vertex 0 0 5
      vertex 0 1.5 1.5
      vertex 0 0 0
    endloop
  endfacet
  facet normal -1 0 0
    outer loop
      vertex 0 1.5 1.5
      vertex 0 0 5
      vertex 0 1.5 5
    endloop
  endfacet
  facet normal 0 0 1
    outer loop
      vertex 201.6 31 1.5
      vertex 198.6 28.15 1.5
      vertex 201.6 1.5 1.5
    endloop
  endfacet
  facet normal 0 0 1
    outer loop
      vertex 201.6 31 1.5
      vertex 169.1 28.15 1.5
      vertex 198.6 28.15 1.5
    endloop
  endfacet
  facet normal 0 0 1
    outer loop
      vertex 169.1 28.15 1.5
      vertex 166.1 25.15 1.5
      vertex 169.1 3 1.5
    endloop
  endfacet
  facet normal 0 0 1
    outer loop
      vertex 169.1 28.15 1.5
      vertex 139.6 25.15 1.5
      vertex 166.1 25.15 1.5
    endloop
  endfacet
  facet normal 0 0 1
    outer loop
      vertex 139.6 25.15 1.5
      vertex 136.6 24.25 1.5
      vertex 139.6 3 1.5
    endloop
  endfacet
  facet normal 0 0 1
    outer loop
      vertex 139.6 25.15 1.5
      vertex 111 24.25 1.5
      vertex 136.6 24.25 1.5
    endloop
  endfacet
  facet normal 0 0 1
    outer loop
      vertex 169.1 28.15 1.5
      vertex 111 24.25 1.5
      vertex 139.6 25.15 1.5
    endloop
  endfacet
  facet normal -0 0 1
    outer loop
      vertex 0 31 1.5
      vertex 169.1 28.15 1.5
      vertex 201.6 31 1.5
    endloop
  endfacet
  facet normal 0 0 1
    outer loop
      vertex 111 24.25 1.5
      vertex 108 23.65 1.5
      vertex 111 3 1.5
    endloop
  endfacet
  facet normal 0 0 1
    outer loop
      vertex 111 24.25 1.5
      vertex 83 23.65 1.5
      vertex 108 23.65 1.5
    endloop
  endfacet
  facet normal 0 0 1
    outer loop
      vertex 169.1 28.15 1.5
      vertex 0 31 1.5
      vertex 111 24.25 1.5
    endloop
  endfacet
  facet normal 0 0 1
    outer loop
      vertex 83 23.65 1.5
      vertex 80 22.65 1.5
      vertex 83 3 1.5
    endloop
  endfacet
  facet normal 0 0 1
    outer loop
      vertex 83 23.65 1.5
      vertex 56 22.65 1.5
      vertex 80 22.65 1.5
    endloop
  endfacet
  facet normal 0 0 1
    outer loop
      vertex 111 24.25 1.5
      vertex 0 31 1.5
      vertex 83 23.65 1.5
    endloop
  endfacet
  facet normal 0 0 1
    outer loop
      vertex 56 22.65 1.5
      vertex 53 21.65 1.5
      vertex 56 3 1.5
    endloop
  endfacet
  facet normal 0 0 1
    outer loop
      vertex 56 22.65 1.5
      vertex 30 21.65 1.5
      vertex 53 21.65 1.5
    endloop
  endfacet
  facet normal 0 0 1
    outer loop
      vertex 83 23.65 1.5
      vertex 0 31 1.5
      vertex 56 22.65 1.5
    endloop
  endfacet
  facet normal 0 0 1
    outer loop
      vertex 0 1.5 1.5
      vertex 30 21.65 1.5
      vertex 0 31 1.5
    endloop
  endfacet
  facet normal 0 0 1
    outer loop
      vertex 56 22.65 1.5
      vertex 0 31 1.5
      vertex 30 21.65 1.5
    endloop
  endfacet
  facet normal -0 0 1
    outer loop
      vertex 198.6 3 1.5
      vertex 201.6 1.5 1.5
      vertex 198.6 28.15 1.5
    endloop
  endfacet
  facet normal -0 0 1
    outer loop
      vertex 169.1 3 1.5
      vertex 201.6 1.5 1.5
      vertex 198.6 3 1.5
    endloop
  endfacet
  facet normal 0 0 1
    outer loop
      vertex 166.1 3 1.5
      vertex 169.1 3 1.5
      vertex 166.1 25.15 1.5
    endloop
  endfacet
  facet normal -0 0 1
    outer loop
      vertex 166.1 3 1.5
      vertex 201.6 1.5 1.5
      vertex 169.1 3 1.5
    endloop
  endfacet
  facet normal -0 0 1
    outer loop
      vertex 139.6 3 1.5
      vertex 201.6 1.5 1.5
      vertex 166.1 3 1.5
    endloop
  endfacet
  facet normal 0 0 1
    outer loop
      vertex 136.6 3 1.5
      vertex 139.6 3 1.5
      vertex 136.6 24.25 1.5
    endloop
  endfacet
  facet normal -0 0 1
    outer loop
      vertex 136.6 3 1.5
      vertex 201.6 1.5 1.5
      vertex 139.6 3 1.5
    endloop
  endfacet
  facet normal -0 0 1
    outer loop
      vertex 111 3 1.5
      vertex 201.6 1.5 1.5
      vertex 136.6 3 1.5
    endloop
  endfacet
  facet normal 0 0 1
    outer loop
      vertex 108 3 1.5
      vertex 111 3 1.5
      vertex 108 23.65 1.5
    endloop
  endfacet
  facet normal -0 0 1
    outer loop
      vertex 108 3 1.5
      vertex 201.6 1.5 1.5
      vertex 111 3 1.5
    endloop
  endfacet
  facet normal -0 0 1
    outer loop
      vertex 83 3 1.5
      vertex 201.6 1.5 1.5
      vertex 108 3 1.5
    endloop
  endfacet
  facet normal 0 0 1
    outer loop
      vertex 80 3 1.5
      vertex 83 3 1.5
      vertex 80 22.65 1.5
    endloop
  endfacet
  facet normal -0 0 1
    outer loop
      vertex 80 3 1.5
      vertex 201.6 1.5 1.5
      vertex 83 3 1.5
    endloop
  endfacet
  facet normal 0 0 1
    outer loop
      vertex 0 1.5 1.5
      vertex 80 3 1.5
      vertex 56 3 1.5
    endloop
  endfacet
  facet normal 0 0 1
    outer loop
      vertex 53 3 1.5
      vertex 56 3 1.5
      vertex 53 21.65 1.5
    endloop
  endfacet
  facet normal 0 0 1
    outer loop
      vertex 0 1.5 1.5
      vertex 56 3 1.5
      vertex 53 3 1.5
    endloop
  endfacet
  facet normal 0 0 1
    outer loop
      vertex 0 1.5 1.5
      vertex 53 3 1.5
      vertex 30 3 1.5
    endloop
  endfacet
  facet normal 0 0 1
    outer loop
      vertex 80 3 1.5
      vertex 0 1.5 1.5
      vertex 201.6 1.5 1.5
    endloop
  endfacet
  facet normal 0 0 1
    outer loop
      vertex 30 21.65 1.5
      vertex 0 1.5 1.5
      vertex 30 3 1.5
    endloop
  endfacet
  facet normal 1 0 0
    outer loop
      vertex 201.6 1.5 5
      vertex 201.6 0 5
      vertex 201.6 1.5 1.5
    endloop
  endfacet
  facet normal 1 -0 0
    outer loop
      vertex 201.6 1.5 1.5
      vertex 201.6 31 0
      vertex 201.6 31 1.5
    endloop
  endfacet
  facet normal 1 0 0
    outer loop
      vertex 201.6 1.5 1.5
      vertex 201.6 0 0
      vertex 201.6 31 0
    endloop
  endfacet
  facet normal 1 0 0
    outer loop
      vertex 201.6 0 0
      vertex 201.6 1.5 1.5
      vertex 201.6 0 5
    endloop
  endfacet
  facet normal 0 0 -1
    outer loop
      vertex 201.6 0 0
      vertex 198.6 3 0
      vertex 201.6 31 0
    endloop
  endfacet
  facet normal 0 0 -1
    outer loop
      vertex 201.6 0 0
      vertex 169.1 3 0
      vertex 198.6 3 0
    endloop
  endfacet
  facet normal 0 0 -1
    outer loop
      vertex 166.1 25.15 0
      vertex 169.1 3 0
      vertex 166.1 3 0
    endloop
  endfacet
  facet normal 0 0 -1
    outer loop
      vertex 201.6 0 0
      vertex 166.1 3 0
      vertex 169.1 3 0
    endloop
  endfacet
  facet normal 0 0 -1
    outer loop
      vertex 201.6 0 0
      vertex 139.6 3 0
      vertex 166.1 3 0
    endloop
  endfacet
  facet normal 0 0 -1
    outer loop
      vertex 136.6 24.25 0
      vertex 139.6 3 0
      vertex 136.6 3 0
    endloop
  endfacet
  facet normal 0 0 -1
    outer loop
      vertex 201.6 0 0
      vertex 136.6 3 0
      vertex 139.6 3 0
    endloop
  endfacet
  facet normal 0 0 -1
    outer loop
      vertex 201.6 0 0
      vertex 111 3 0
      vertex 136.6 3 0
    endloop
  endfacet
  facet normal 0 0 -1
    outer loop
      vertex 108 23.65 0
      vertex 111 3 0
      vertex 108 3 0
    endloop
  endfacet
  facet normal 0 0 -1
    outer loop
      vertex 201.6 0 0
      vertex 108 3 0
      vertex 111 3 0
    endloop
  endfacet
  facet normal 0 0 -1
    outer loop
      vertex 201.6 0 0
      vertex 83 3 0
      vertex 108 3 0
    endloop
  endfacet
  facet normal 0 0 -1
    outer loop
      vertex 80 22.65 0
      vertex 83 3 0
      vertex 80 3 0
    endloop
  endfacet
  facet normal 0 0 -1
    outer loop
      vertex 0 0 0
      vertex 83 3 0
      vertex 201.6 0 0
    endloop
  endfacet
  facet normal -0 0 -1
    outer loop
      vertex 83 3 0
      vertex 0 0 0
      vertex 80 3 0
    endloop
  endfacet
  facet normal 0 0 -1
    outer loop
      vertex 53 21.65 0
      vertex 56 3 0
      vertex 53 3 0
    endloop
  endfacet
  facet normal -0 0 -1
    outer loop
      vertex 80 3 0
      vertex 0 0 0
      vertex 56 3 0
    endloop
  endfacet
  facet normal -0 0 -1
    outer loop
      vertex 56 3 0
      vertex 0 0 0
      vertex 53 3 0
    endloop
  endfacet
  facet normal -0 0 -1
    outer loop
      vertex 30 3 0
      vertex 0 0 0
      vertex 30 21.65 0
    endloop
  endfacet
  facet normal -0 0 -1
    outer loop
      vertex 53 3 0
      vertex 0 0 0
      vertex 30 3 0
    endloop
  endfacet
  facet normal 0 0 -1
    outer loop
      vertex 198.6 28.15 0
      vertex 201.6 31 0
      vertex 198.6 3 0
    endloop
  endfacet
  facet normal 0 0 -1
    outer loop
      vertex 169.1 28.15 0
      vertex 201.6 31 0
      vertex 198.6 28.15 0
    endloop
  endfacet
  facet normal 0 0 -1
    outer loop
      vertex 169.1 3 0
      vertex 166.1 25.15 0
      vertex 169.1 28.15 0
    endloop
  endfacet
  facet normal 0 0 -1
    outer loop
      vertex 139.6 25.15 0
      vertex 169.1 28.15 0
      vertex 166.1 25.15 0
    endloop
  endfacet
  facet normal 0 0 -1
    outer loop
      vertex 139.6 3 0
      vertex 136.6 24.25 0
      vertex 139.6 25.15 0
    endloop
  endfacet
  facet normal 0 0 -1
    outer loop
      vertex 111 24.25 0
      vertex 139.6 25.15 0
      vertex 136.6 24.25 0
    endloop
  endfacet
  facet normal 0 0 -1
    outer loop
      vertex 111 24.25 0
      vertex 169.1 28.15 0
      vertex 139.6 25.15 0
    endloop
  endfacet
  facet normal 0 0 -1
    outer loop
      vertex 0 31 0
      vertex 169.1 28.15 0
      vertex 111 24.25 0
    endloop
  endfacet
  facet normal 0 0 -1
    outer loop
      vertex 111 3 0
      vertex 108 23.65 0
      vertex 111 24.25 0
    endloop
  endfacet
  facet normal 0 0 -1
    outer loop
      vertex 83 23.65 0
      vertex 111 24.25 0
      vertex 108 23.65 0
    endloop
  endfacet
  facet normal 0 0 -1
    outer loop
      vertex 0 31 0
      vertex 111 24.25 0
      vertex 83 23.65 0
    endloop
  endfacet
  facet normal 0 0 -1
    outer loop
      vertex 83 3 0
      vertex 80 22.65 0
      vertex 83 23.65 0
    endloop
  endfacet
  facet normal 0 0 -1
    outer loop
      vertex 56 22.65 0
      vertex 83 23.65 0
      vertex 80 22.65 0
    endloop
  endfacet
  facet normal 0 0 -1
    outer loop
      vertex 0 31 0
      vertex 83 23.65 0
      vertex 56 22.65 0
    endloop
  endfacet
  facet normal 0 0 -1
    outer loop
      vertex 56 3 0
      vertex 53 21.65 0
      vertex 56 22.65 0
    endloop
  endfacet
  facet normal 0 0 -1
    outer loop
      vertex 30 21.65 0
      vertex 56 22.65 0
      vertex 53 21.65 0
    endloop
  endfacet
  facet normal 0 0 -1
    outer loop
      vertex 0 31 0
      vertex 56 22.65 0
      vertex 30 21.65 0
    endloop
  endfacet
  facet normal 0 0 -1
    outer loop
      vertex 169.1 28.15 0
      vertex 0 31 0
      vertex 201.6 31 0
    endloop
  endfacet
  facet normal 0 0 -1
    outer loop
      vertex 0 31 0
      vertex 30 21.65 0
      vertex 0 0 0
    endloop
  endfacet
  facet normal 0 -1 0
    outer loop
      vertex 0 0 0
      vertex 201.6 0 5
      vertex 0 0 5
    endloop
  endfacet
  facet normal 0 -1 -0
    outer loop
      vertex 201.6 0 5
      vertex 0 0 0
      vertex 201.6 0 0
    endloop
  endfacet
  facet normal 0 1 -0
    outer loop
      vertex 201.6 31 0
      vertex 0 31 1.5
      vertex 201.6 31 1.5
    endloop
  endfacet
  facet normal 0 1 0
    outer loop
      vertex 0 31 1.5
      vertex 201.6 31 0
      vertex 0 31 0
    endloop
  endfacet
  facet normal -0 0 1
    outer loop
      vertex 0 1.5 5
      vertex 201.6 0 5
      vertex 201.6 1.5 5
    endloop
  endfacet
  facet normal 0 0 1
    outer loop
      vertex 201.6 0 5
      vertex 0 1.5 5
      vertex 0 0 5
    endloop
  endfacet
  facet normal 0 1 -0
    outer loop
      vertex 201.6 1.5 1.5
      vertex 0 1.5 5
      vertex 201.6 1.5 5
    endloop
  endfacet
  facet normal 0 1 0
    outer loop
      vertex 0 1.5 5
      vertex 201.6 1.5 1.5
      vertex 0 1.5 1.5
    endloop
  endfacet
  facet normal 1 -0 0
    outer loop
      vertex 30 3 1.5
      vertex 30 21.65 0
      vertex 30 21.65 1.5
    endloop
  endfacet
  facet normal 1 0 0
    outer loop
      vertex 30 21.65 0
      vertex 30 3 1.5
      vertex 30 3 0
    endloop
  endfacet
  facet normal -1 0 0
    outer loop
      vertex 53 3 0
      vertex 53 21.65 1.5
      vertex 53 21.65 0
    endloop
  endfacet
  facet normal -1 -0 0
    outer loop
      vertex 53 21.65 1.5
      vertex 53 3 0
      vertex 53 3 1.5
    endloop
  endfacet
  facet normal 0 -1 0
    outer loop
      vertex 30 21.65 0
      vertex 53 21.65 1.5
      vertex 30 21.65 1.5
    endloop
  endfacet
  facet normal 0 -1 -0
    outer loop
      vertex 53 21.65 1.5
      vertex 30 21.65 0
      vertex 53 21.65 0
    endloop
  endfacet
  facet normal 0 1 -0
    outer loop
      vertex 53 3 0
      vertex 30 3 1.5
      vertex 53 3 1.5
    endloop
  endfacet
  facet normal 0 1 0
    outer loop
      vertex 30 3 1.5
      vertex 53 3 0
      vertex 30 3 0
    endloop
  endfacet
  facet normal 1 -0 0
    outer loop
      vertex 56 3 1.5
      vertex 56 22.65 0
      vertex 56 22.65 1.5
    endloop
  endfacet
  facet normal 1 0 0
    outer loop
      vertex 56 22.65 0
      vertex 56 3 1.5
      vertex 56 3 0
    endloop
  endfacet
  facet normal -1 0 0
    outer loop
      vertex 80 3 0
      vertex 80 22.65 1.5
      vertex 80 22.65 0
    endloop
  endfacet
  facet normal -1 -0 0
    outer loop
      vertex 80 22.65 1.5
      vertex 80 3 0
      vertex 80 3 1.5
    endloop
  endfacet
  facet normal 0 1 -0
    outer loop
      vertex 80 3 0
      vertex 56 3 1.5
      vertex 80 3 1.5
    endloop
  endfacet
  facet normal 0 1 0
    outer loop
      vertex 56 3 1.5
      vertex 80 3 0
      vertex 56 3 0
    endloop
  endfacet
  facet normal 0 -1 0
    outer loop
      vertex 56 22.65 0
      vertex 80 22.65 1.5
      vertex 56 22.65 1.5
    endloop
  endfacet
  facet normal 0 -1 -0
    outer loop
      vertex 80 22.65 1.5
      vertex 56 22.65 0
      vertex 80 22.65 0
    endloop
  endfacet
  facet normal 1 -0 0
    outer loop
      vertex 83 3 1.5
      vertex 83 23.65 0
      vertex 83 23.65 1.5
    endloop
  endfacet
  facet normal 1 0 0
    outer loop
      vertex 83 23.65 0
      vertex 83 3 1.5
      vertex 83 3 0
    endloop
  endfacet
  facet normal -1 0 0
    outer loop
      vertex 108 3 0
      vertex 108 23.65 1.5
      vertex 108 23.65 0
    endloop
  endfacet
  facet normal -1 -0 0
    outer loop
      vertex 108 23.65 1.5
      vertex 108 3 0
      vertex 108 3 1.5
    endloop
  endfacet
  facet normal 0 1 -0
    outer loop
      vertex 108 3 0
      vertex 83 3 1.5
      vertex 108 3 1.5
    endloop
  endfacet
  facet normal 0 1 0
    outer loop
      vertex 83 3 1.5
      vertex 108 3 0
      vertex 83 3 0
    endloop
  endfacet
  facet normal 0 -1 0
    outer loop
      vertex 83 23.65 0
      vertex 108 23.65 1.5
      vertex 83 23.65 1.5
    endloop
  endfacet
  facet normal 0 -1 -0
    outer loop
      vertex 108 23.65 1.5
      vertex 83 23.65 0
      vertex 108 23.65 0
    endloop
  endfacet
  facet normal 1 -0 0
    outer loop
      vertex 111 3 1.5
      vertex 111 24.25 0
      vertex 111 24.25 1.5
    endloop
  endfacet
  facet normal 1 0 0
    outer loop
      vertex 111 24.25 0
      vertex 111 3 1.5
      vertex 111 3 0
    endloop
  endfacet
  facet normal -1 0 0
    outer loop
      vertex 136.6 3 0
      vertex 136.6 24.25 1.5
      vertex 136.6 24.25 0
    endloop
  endfacet
  facet normal -1 -0 0
    outer loop
      vertex 136.6 24.25 1.5
      vertex 136.6 3 0
      vertex 136.6 3 1.5
    endloop
  endfacet
  facet normal 0 1 -0
    outer loop
      vertex 136.6 3 0
      vertex 111 3 1.5
      vertex 136.6 3 1.5
    endloop
  endfacet
  facet normal 0 1 0
    outer loop
      vertex 111 3 1.5
      vertex 136.6 3 0
      vertex 111 3 0
    endloop
  endfacet
  facet normal 0 -1 0
    outer loop
      vertex 111 24.25 0
      vertex 136.6 24.25 1.5
      vertex 111 24.25 1.5
    endloop
  endfacet
  facet normal 0 -1 -0
    outer loop
      vertex 136.6 24.25 1.5
      vertex 111 24.25 0
      vertex 136.6 24.25 0
    endloop
  endfacet
  facet normal 1 -0 0
    outer loop
      vertex 139.6 3 1.5
      vertex 139.6 25.15 0
      vertex 139.6 25.15 1.5
    endloop
  endfacet
  facet normal 1 0 0
    outer loop
      vertex 139.6 25.15 0
      vertex 139.6 3 1.5
      vertex 139.6 3 0
    endloop
  endfacet
  facet normal -1 0 0
    outer loop
      vertex 166.1 3 0
      vertex 166.1 25.15 1.5
      vertex 166.1 25.15 0
    endloop
  endfacet
  facet normal -1 -0 0
    outer loop
      vertex 166.1 25.15 1.5
      vertex 166.1 3 0
      vertex 166.1 3 1.5
    endloop
  endfacet
  facet normal 0 1 -0
    outer loop
      vertex 166.1 3 0
      vertex 139.6 3 1.5
      vertex 166.1 3 1.5
    endloop
  endfacet
  facet normal 0 1 0
    outer loop
      vertex 139.6 3 1.5
      vertex 166.1 3 0
      vertex 139.6 3 0
    endloop
  endfacet
  facet normal 0 -1 0
    outer loop
      vertex 139.6 25.15 0
      vertex 166.1 25.15 1.5
      vertex 139.6 25.15 1.5
    endloop
  endfacet
  facet normal 0 -1 -0
    outer loop
      vertex 166.1 25.15 1.5
      vertex 139.6 25.15 0
      vertex 166.1 25.15 0
    endloop
  endfacet
  facet normal 1 -0 0
    outer loop
      vertex 169.1 3 1.5
      vertex 169.1 28.15 0
      vertex 169.1 28.15 1.5
    endloop
  endfacet
  facet normal 1 0 0
    outer loop
      vertex 169.1 28.15 0
      vertex 169.1 3 1.5
      vertex 169.1 3 0
    endloop
  endfacet
  facet normal -1 0 0
    outer loop
      vertex 198.6 3 0
      vertex 198.6 28.15 1.5
      vertex 198.6 28.15 0
    endloop
  endfacet
  facet normal -1 -0 0
    outer loop
      vertex 198.6 28.15 1.5
      vertex 198.6 3 0
      vertex 198.6 3 1.5
    endloop
  endfacet
  facet normal 0 1 -0
    outer loop
      vertex 198.6 3 0
      vertex 169.1 3 1.5
      vertex 198.6 3 1.5
    endloop
  endfacet
  facet normal 0 1 0
    outer loop
      vertex 169.1 3 1.5
      vertex 198.6 3 0
      vertex 169.1 3 0
    endloop
  endfacet
  facet normal 0 -1 0
    outer loop
      vertex 169.1 28.15 0
      vertex 198.6 28.15 1.5
      vertex 169.1 28.15 1.5
    endloop
  endfacet
  facet normal 0 -1 -0
    outer loop
      vertex 198.6 28.15 1.5
      vertex 169.1 28.15 0
      vertex 198.6 28.15 0
    endloop
  endfacet
endsolid OpenSCAD_Model
